<svg width="24" height="24" viewBox="0 0 24 24" fill="none" xmlns="http://www.w3.org/2000/svg">
<mask id="mask0_1_87" style="mask-type:alpha" maskUnits="userSpaceOnUse" x="0" y="0" width="24" height="24">
<rect width="24" height="24" fill="#D9D9D9"/>
</mask>
<g mask="url(#mask0_1_87)">
<path d="M12.35 16.5C11.6833 17.1667 10.875 17.5 9.925 17.5C8.975 17.5 8.16667 17.1667 7.5 16.5C6.83333 15.8333 6.5 15.0292 6.5 14.0875C6.5 13.1458 6.83333 12.3417 7.5 11.675L11.65 7.5C12.3167 6.83333 13.125 6.5 14.075 6.5C15.025 6.5 15.8333 6.83333 16.5 7.5C17.1667 8.16667 17.5 8.97083 17.5 9.9125C17.5 10.8542 17.1667 11.6583 16.5 12.325L12.35 16.5ZM8.9 15.075C9.28333 15.4583 9.67917 15.5958 10.0875 15.4875C10.4958 15.3792 10.775 15.25 10.925 15.1L12.3 13.7L10.3 11.7L8.9 13.075C8.61667 13.3583 8.475 13.6917 8.475 14.075C8.475 14.4583 8.61667 14.7917 8.9 15.075ZM15.1 8.925C14.7167 8.54167 14.3208 8.40417 13.9125 8.5125C13.5042 8.62083 13.225 8.75 13.075 8.9L11.7 10.3L13.7 12.3L15.1 10.925C15.3833 10.6417 15.525 10.3083 15.525 9.925C15.525 9.54167 15.3833 9.20833 15.1 8.925ZM5 21C4.45 21 3.97917 20.8042 3.5875 20.4125C3.19583 20.0208 3 19.55 3 19V5C3 4.45 3.19583 3.97917 3.5875 3.5875C3.97917 3.19583 4.45 3 5 3H9.2C9.41667 2.4 9.77917 1.91667 10.2875 1.55C10.7958 1.18333 11.3667 1 12 1C12.6333 1 13.2042 1.18333 13.7125 1.55C14.2208 1.91667 14.5833 2.4 14.8 3H19C19.55 3 20.0208 3.19583 20.4125 3.5875C20.8042 3.97917 21 4.45 21 5V19C21 19.55 20.8042 20.0208 20.4125 20.4125C20.0208 20.8042 19.55 21 19 21H5ZM5 19H19V5H5V19ZM12 4.25C12.2167 4.25 12.3958 4.17917 12.5375 4.0375C12.6792 3.89583 12.75 3.71667 12.75 3.5C12.75 3.28333 12.6792 3.10417 12.5375 2.9625C12.3958 2.82083 12.2167 2.75 12 2.75C11.7833 2.75 11.6042 2.82083 11.4625 2.9625C11.3208 3.10417 11.25 3.28333 11.25 3.5C11.25 3.71667 11.3208 3.89583 11.4625 4.0375C11.6042 4.17917 11.7833 4.25 12 4.25Z" fill="#A3AED0"/>
</g>
</svg>
