<svg width="62" height="62" viewBox="0 0 62 62" fill="none" xmlns="http://www.w3.org/2000/svg">
<circle cx="31" cy="31" r="31" fill="#F4F7FE"/>
<g clip-path="url(#clip0_0_318)">
<path d="M38.5 30V38C38.5 40.757 36.257 43 33.5 43H23.5C20.743 43 18.5 40.757 18.5 38V28C18.5 25.243 20.743 23 23.5 23H31.5C32.052 23 32.5 23.448 32.5 24C32.5 24.552 32.052 25 31.5 25H23.5C21.846 25 20.5 26.346 20.5 28V38C20.5 39.654 21.846 41 23.5 41H33.5C35.154 41 36.5 39.654 36.5 38V30C36.5 29.448 36.948 29 37.5 29C38.052 29 38.5 29.448 38.5 30ZM39.5 19H32.5C31.948 19 31.5 19.448 31.5 20C31.5 20.552 31.948 21 32.5 21H39.086L26.793 33.293C26.402 33.684 26.402 34.316 26.793 34.707C26.988 34.902 27.244 35 27.5 35C27.756 35 28.012 34.902 28.207 34.707L40.5 22.414V29C40.5 29.552 40.948 30 41.5 30C42.052 30 42.5 29.552 42.5 29V22C42.5 20.346 41.154 19 39.5 19Z" fill="#5B5B5B"/>
</g>
<defs>
<clipPath id="clip0_0_318">
<rect width="24" height="24" fill="white" transform="translate(18.5 19)"/>
</clipPath>
</defs>
</svg>
