<svg width="25" height="24" viewBox="0 0 25 24" fill="none" xmlns="http://www.w3.org/2000/svg">
<g clip-path="url(#clip0_0_297)">
<path d="M11.9341 7H13.9303V9H11.9341V7ZM12.9322 17C13.4812 17 13.9303 16.55 13.9303 16V12C13.9303 11.45 13.4812 11 12.9322 11C12.3833 11 11.9341 11.45 11.9341 12V16C11.9341 16.55 12.3833 17 12.9322 17ZM12.9322 2C7.42262 2 2.95105 6.48 2.95105 12C2.95105 17.52 7.42262 22 12.9322 22C18.4418 22 22.9134 17.52 22.9134 12C22.9134 6.48 18.4418 2 12.9322 2ZM12.9322 20C8.53053 20 4.94729 16.41 4.94729 12C4.94729 7.59 8.53053 4 12.9322 4C17.3339 4 20.9172 7.59 20.9172 12C20.9172 16.41 17.3339 20 12.9322 20Z" fill="#A3AED0"/>
</g>
<defs>
<clipPath id="clip0_0_297">
<rect width="23.9548" height="24" fill="white" transform="translate(0.954834)"/>
</clipPath>
</defs>
</svg>
