<svg width="24" height="24" viewBox="0 0 24 24" fill="none" xmlns="http://www.w3.org/2000/svg">
<mask id="mask0_1_140" style="mask-type:alpha" maskUnits="userSpaceOnUse" x="0" y="0" width="24" height="24">
<rect width="24" height="24" fill="#D9D9D9"/>
</mask>
<g mask="url(#mask0_1_140)">
<path d="M3 21C2.45 21 1.97917 20.8042 1.5875 20.4125C1.19583 20.0208 1 19.55 1 19V14C1 13.45 1.19583 12.9792 1.5875 12.5875C1.97917 12.1958 2.45 12 3 12V7.725C2.7 7.54167 2.45833 7.30417 2.275 7.0125C2.09167 6.72083 2 6.38333 2 6V5C2 4.45 2.19583 3.97917 2.5875 3.5875C2.97917 3.19583 3.45 3 4 3H9C9.55 3 10.0208 3.19583 10.4125 3.5875C10.8042 3.97917 11 4.45 11 5V6C11 6.38333 10.9083 6.72083 10.725 7.0125C10.5417 7.30417 10.3 7.54167 10 7.725V12H14V7.725C13.7 7.54167 13.4583 7.30417 13.275 7.0125C13.0917 6.72083 13 6.38333 13 6V5C13 4.45 13.1958 3.97917 13.5875 3.5875C13.9792 3.19583 14.45 3 15 3H20C20.55 3 21.0208 3.19583 21.4125 3.5875C21.8042 3.97917 22 4.45 22 5V6C22 6.38333 21.9083 6.72083 21.725 7.0125C21.5417 7.30417 21.3 7.54167 21 7.725V12C21.55 12 22.0208 12.1958 22.4125 12.5875C22.8042 12.9792 23 13.45 23 14V19C23 19.55 22.8042 20.0208 22.4125 20.4125C22.0208 20.8042 21.55 21 21 21H3ZM15 6H20V5H15V6ZM4 6H9V5H4V6ZM16 12H19V8H16V12ZM5 12H8V8H5V12ZM3 19H21V14H3V19Z" fill="#A3AED0"/>
</g>
</svg>
