<svg width="24" height="24" viewBox="0 0 24 24" fill="none" xmlns="http://www.w3.org/2000/svg">
<g clip-path="url(#clip0_0_298)">
<path d="M19.2537 17.29L17.9661 16V11C17.9661 7.93 16.3292 5.36 13.4746 4.68V4C13.4746 3.17 12.8058 2.5 11.9774 2.5C11.149 2.5 10.4802 3.17 10.4802 4V4.68C7.61564 5.36 5.9887 7.92 5.9887 11V16L4.70113 17.29C4.07232 17.92 4.51149 19 5.39981 19H18.545C19.4433 19 19.8825 17.92 19.2537 17.29ZM15.9699 17H7.98494V11C7.98494 8.52 9.4921 6.5 11.9774 6.5C14.4627 6.5 15.9699 8.52 15.9699 11V17ZM11.9774 22C13.0753 22 13.9736 21.1 13.9736 20H9.98118C9.98118 21.1 10.8695 22 11.9774 22Z" fill="#A3AED0"/>
</g>
<defs>
<clipPath id="clip0_0_298">
<rect width="23.9548" height="24" fill="white"/>
</clipPath>
</defs>
</svg>
