<svg width="19" height="18" viewBox="0 0 19 18" fill="none" xmlns="http://www.w3.org/2000/svg">
<path d="M1.95483 10H7.95483C8.50483 10 8.95483 9.55 8.95483 9V1C8.95483 0.45 8.50483 0 7.95483 0H1.95483C1.40483 0 0.954834 0.45 0.954834 1V9C0.954834 9.55 1.40483 10 1.95483 10ZM1.95483 18H7.95483C8.50483 18 8.95483 17.55 8.95483 17V13C8.95483 12.45 8.50483 12 7.95483 12H1.95483C1.40483 12 0.954834 12.45 0.954834 13V17C0.954834 17.55 1.40483 18 1.95483 18ZM11.9548 18H17.9548C18.5048 18 18.9548 17.55 18.9548 17V9C18.9548 8.45 18.5048 8 17.9548 8H11.9548C11.4048 8 10.9548 8.45 10.9548 9V17C10.9548 17.55 11.4048 18 11.9548 18ZM10.9548 1V5C10.9548 5.55 11.4048 6 11.9548 6H17.9548C18.5048 6 18.9548 5.55 18.9548 5V1C18.9548 0.45 18.5048 0 17.9548 0H11.9548C11.4048 0 10.9548 0.45 10.9548 1Z" fill="#A3AED0"/>
</svg>
