<svg width="17" height="21" viewBox="0 0 17 21" fill="none" xmlns="http://www.w3.org/2000/svg">
<path d="M14.9097 7H13.9097V5C13.9097 2.24 11.6697 0 8.90967 0C6.14967 0 3.90967 2.24 3.90967 5V7H2.90967C1.80967 7 0.909668 7.9 0.909668 9V19C0.909668 20.1 1.80967 21 2.90967 21H14.9097C16.0097 21 16.9097 20.1 16.9097 19V9C16.9097 7.9 16.0097 7 14.9097 7ZM8.90967 16C7.80967 16 6.90967 15.1 6.90967 14C6.90967 12.9 7.80967 12 8.90967 12C10.0097 12 10.9097 12.9 10.9097 14C10.9097 15.1 10.0097 16 8.90967 16ZM5.90967 7V5C5.90967 3.34 7.24967 2 8.90967 2C10.5697 2 11.9097 3.34 11.9097 5V7H5.90967Z" fill="#A3AED0"/>
</svg>
